<svg width="20" height="10" viewBox="0 0 20 10" fill="none" xmlns="http://www.w3.org/2000/svg">
<path d="M10.0017 0.00822862C10.2089 0.0380934 10.401 0.132551 10.5515 0.277937L18.8488 8.24331C19.0583 8.42019 19.1856 8.67577 19.2006 8.94941C19.2157 9.22329 19.1173 9.49114 18.9284 9.69C18.7397 9.88887 18.4772 10.0009 18.2031 9.99999C17.9288 9.99907 17.6671 9.88517 17.4796 9.68491L9.86688 2.37265L2.25414 9.68491C2.06661 9.88517 1.80501 9.99907 1.53067 9.99999C1.25657 10.0009 0.994038 9.88887 0.805377 9.69C0.616465 9.49114 0.518071 9.22328 0.53312 8.94941C0.548167 8.67577 0.675494 8.42018 0.885012 8.24332L9.18228 0.277937C9.40036 0.0684192 9.70178 -0.0308926 10.0016 0.00846013L10.0017 0.00822862Z" fill="#419EF4"/>
</svg>
