<svg width="41" height="41" viewBox="0 0 41 41" fill="none" xmlns="http://www.w3.org/2000/svg">
<path d="M38.0615 20.0729C38.6151 19.5068 39.0033 18.8 39.1839 18.0291C39.3646 17.2583 39.3309 16.4526 39.0865 15.6995C38.8611 14.9509 38.4288 14.2811 37.8395 13.7673C37.2501 13.2535 36.5276 12.9166 35.7552 12.7954L28.1702 11.6679C28.0373 11.6485 27.9114 11.5962 27.804 11.5156C27.6965 11.435 27.611 11.3288 27.5552 11.2066L24.1386 4.08286C23.8171 3.38467 23.305 2.79141 22.6613 2.37134C22.0176 1.95126 21.2684 1.72143 20.4998 1.70827C19.7168 1.70577 18.9499 1.93036 18.2919 2.35485C17.634 2.77934 17.1132 3.38551 16.7927 4.09994L13.3761 11.2408C13.3217 11.3639 13.2365 11.471 13.1288 11.5517C13.0211 11.6325 12.8945 11.6842 12.7611 11.702L5.19316 12.8808C4.42159 12.9991 3.69984 13.3353 3.11275 13.8498C2.52566 14.3642 2.09764 15.0356 1.87899 15.7849C1.6348 16.5394 1.60286 17.3464 1.78666 18.1178C1.97046 18.8891 2.36291 19.595 2.92108 20.1583L8.54149 25.7104C8.63743 25.8046 8.70925 25.9205 8.75089 26.0484C8.79252 26.1763 8.80273 26.3123 8.78066 26.4449L7.49941 34.3033C7.3734 35.088 7.46618 35.8922 7.76757 36.6276C8.06896 37.363 8.56728 38.001 9.20774 38.4716C9.89285 39.001 10.7336 39.2892 11.5994 39.2916C12.2738 39.2878 12.9369 39.1176 13.5298 38.7962L20.3632 35.072C20.48 35.0046 20.6126 34.969 20.7475 34.969C20.8825 34.969 21.015 35.0046 21.1319 35.072L27.9652 38.762C28.6416 39.1289 29.4098 39.2919 30.1769 39.2313C30.944 39.1706 31.677 38.889 32.2873 38.4204C32.9277 37.9458 33.4257 37.3046 33.7269 36.5666C34.0281 35.8286 34.1211 35.0221 33.9957 34.2349L32.6802 26.3937C32.656 26.2598 32.6634 26.122 32.702 25.9915C32.7406 25.8609 32.8092 25.7413 32.9023 25.642L38.0615 20.0729ZM30.2715 23.1991C29.7854 23.6883 29.4209 24.2847 29.2073 24.9405C28.9936 25.5962 28.9369 26.2929 29.0415 26.9745L30.3569 34.8329C30.3884 34.9846 30.3762 35.1422 30.3218 35.2873C30.2674 35.4325 30.1729 35.5592 30.0494 35.6529C29.9222 35.7352 29.7739 35.779 29.6223 35.779C29.4708 35.779 29.3225 35.7352 29.1952 35.6529L22.3619 31.9629C21.7749 31.6429 21.1171 31.4752 20.4486 31.4752C19.7801 31.4752 19.1222 31.6429 18.5352 31.9629L11.7019 35.687C11.5747 35.7694 11.4264 35.8132 11.2748 35.8132C11.1233 35.8132 10.975 35.7694 10.8477 35.687C10.7195 35.5969 10.6205 35.4713 10.5628 35.3256C10.5051 35.1799 10.4913 35.0205 10.5232 34.867L11.9582 27.0258C12.0694 26.3481 12.0207 25.6539 11.8161 24.9984C11.6114 24.3429 11.2564 23.7443 10.7794 23.2504L5.26149 17.6983C5.16309 17.5818 5.09836 17.4407 5.07427 17.2902C5.05019 17.1397 5.06767 16.9854 5.12483 16.8441C5.1688 16.6938 5.25492 16.5592 5.37299 16.4562C5.49106 16.3533 5.63615 16.2863 5.79108 16.2633L13.359 15.1016C14.0122 14.984 14.627 14.7095 15.1507 14.3019C15.6744 13.8942 16.0913 13.3655 16.3657 12.7612L19.7823 5.60327C19.8423 5.46228 19.9421 5.34188 20.0696 5.2569C20.1971 5.17191 20.3466 5.12605 20.4998 5.12494C20.654 5.12125 20.8059 5.16301 20.9365 5.24503C21.0671 5.32705 21.1707 5.4457 21.2344 5.58619L24.6511 12.727C24.9392 13.3362 25.3713 13.866 25.91 14.2708C26.4487 14.6756 27.0779 14.9431 27.7432 15.0504L35.3282 16.1779C35.4802 16.1964 35.6233 16.26 35.7389 16.3605C35.8546 16.4609 35.9376 16.5937 35.9773 16.7416C36.0312 16.8911 36.0406 17.053 36.0042 17.2077C35.9678 17.3623 35.8872 17.5031 35.7723 17.6129L30.2715 23.1991Z" fill="#419EF4"/>
</svg>
