<svg width="12" height="12" viewBox="0 0 12 12" fill="none" xmlns="http://www.w3.org/2000/svg">
<path d="M6.00494 5.68112C6.02286 5.80544 6.07953 5.92073 6.16676 6.01102L10.946 10.9894C11.0521 11.1151 11.2055 11.1915 11.3696 11.2005C11.534 11.2095 11.6947 11.1505 11.814 11.0372C11.9333 10.924 12.0006 10.7664 12 10.602C11.9994 10.4374 11.9311 10.2804 11.8109 10.1679L7.42359 5.60026L11.8109 1.03261C11.9311 0.920096 11.9994 0.763136 12 0.598533C12.0006 0.43407 11.9333 0.276552 11.814 0.163355C11.6947 0.050008 11.534 -0.00902864 11.3696 -3.15341e-08C11.2055 0.00902894 11.0521 0.0854251 10.946 0.211136L6.16676 5.1895C6.04105 5.32035 5.98146 5.5012 6.00508 5.68107L6.00494 5.68112Z" fill="#419EF4"/>
<path d="M3.00494 5.68112C3.02286 5.80544 3.07953 5.92073 3.16676 6.01102L7.94599 10.9894C8.05211 11.1151 8.20546 11.1915 8.36965 11.2005C8.53397 11.2095 8.69468 11.1505 8.814 11.0372C8.93332 10.924 9.00055 10.7664 9 10.602C8.99944 10.4374 8.9311 10.2804 8.81095 10.1679L4.42359 5.60026L8.81095 1.03261C8.9311 0.920096 8.99944 0.763136 9 0.598533C9.00055 0.43407 8.93332 0.276552 8.814 0.163355C8.69468 0.050008 8.53397 -0.00902864 8.36965 -3.15341e-08C8.20546 0.00902894 8.05211 0.0854251 7.94599 0.211136L3.16676 5.1895C3.04105 5.32035 2.98146 5.5012 3.00508 5.68107L3.00494 5.68112Z" fill="black"/>
<path d="M0.00493669 5.68112C0.0228556 5.80544 0.0795302 5.92073 0.166762 6.01102L4.94599 10.9894C5.05211 11.1151 5.20546 11.1915 5.36965 11.2005C5.53397 11.2095 5.69468 11.1505 5.814 11.0372C5.93332 10.924 6.00055 10.7664 6 10.602C5.99944 10.4374 5.9311 10.2804 5.81095 10.1679L1.42359 5.60026L5.81095 1.03261C5.9311 0.920096 5.99944 0.763136 6 0.598533C6.00055 0.43407 5.93332 0.276552 5.814 0.163355C5.69468 0.050008 5.53397 -0.00902864 5.36965 -3.15341e-08C5.20546 0.00902894 5.05211 0.0854251 4.94599 0.211136L0.166762 5.1895C0.041051 5.32035 -0.0185361 5.5012 0.00507559 5.68107L0.00493669 5.68112Z" fill="#419EF4"/>
</svg>
