<svg width="12" height="6" viewBox="0 0 12 6" fill="none" xmlns="http://www.w3.org/2000/svg">
<path d="M5.68185 5.99506C5.80617 5.97714 5.92146 5.92047 6.01175 5.83324L10.9901 1.05401C11.1158 0.947887 11.1922 0.794536 11.2012 0.630353C11.2103 0.466028 11.1512 0.305315 11.0379 0.185998C10.9247 0.066678 10.7672 -0.000551262 10.6027 3.28546e-06C10.4381 0.000559263 10.2811 0.0689005 10.1686 0.189053L5.60099 4.57641L1.03334 0.189053C0.920828 0.0688997 0.763868 0.000557464 0.599266 2.41093e-06C0.434802 -0.000553119 0.277283 0.0666771 0.164086 0.185997C0.0507398 0.305318 -0.00829744 0.466031 0.000731938 0.630352C0.00976036 0.794538 0.0861563 0.94789 0.211868 1.05401L5.19023 5.83324C5.32108 5.95895 5.50193 6.01854 5.68181 5.99492L5.68185 5.99506Z" fill="#419EF4"/>
</svg>
