<svg width="12" height="12" viewBox="0 0 12 12" fill="none" xmlns="http://www.w3.org/2000/svg">
<path d="M6.00494 5.6821C6.02286 5.80642 6.07953 5.92171 6.16676 6.01199L10.946 10.9904C11.0521 11.1161 11.2055 11.1925 11.3696 11.2015C11.534 11.2105 11.6947 11.1515 11.814 11.0381C11.9333 10.9249 12.0006 10.7674 12 10.603C11.9994 10.4384 11.9311 10.2814 11.8109 10.1689L7.42359 5.60123L11.8109 1.03359C11.9311 0.921072 11.9994 0.764111 12 0.599509C12.0006 0.435045 11.9333 0.277527 11.814 0.16433C11.6947 0.0509832 11.534 -0.00805348 11.3696 0.000975132C11.2055 0.0100041 11.0521 0.0864002 10.946 0.212111L6.16676 5.19047C6.04105 5.32132 5.98146 5.50217 6.00508 5.68205L6.00494 5.6821Z" fill="black"/>
<path d="M3.00494 5.6821C3.02286 5.80642 3.07953 5.92171 3.16676 6.01199L7.94599 10.9904C8.05211 11.1161 8.20546 11.1925 8.36965 11.2015C8.53397 11.2105 8.69468 11.1515 8.814 11.0381C8.93332 10.9249 9.00055 10.7674 9 10.603C8.99944 10.4384 8.9311 10.2814 8.81095 10.1689L4.42359 5.60123L8.81095 1.03359C8.9311 0.921072 8.99944 0.764111 9 0.599509C9.00055 0.435045 8.93332 0.277527 8.814 0.16433C8.69468 0.0509832 8.53397 -0.00805348 8.36965 0.000975132C8.20546 0.0100041 8.05211 0.0864002 7.94599 0.212111L3.16676 5.19047C3.04105 5.32132 2.98146 5.50217 3.00508 5.68205L3.00494 5.6821Z" fill="black"/>
<path d="M0.00493662 5.6821C0.0228555 5.80642 0.0795301 5.92171 0.166762 6.01199L4.94599 10.9904C5.05211 11.1161 5.20546 11.1925 5.36965 11.2015C5.53397 11.2105 5.69468 11.1515 5.814 11.0381C5.93332 10.9249 6.00055 10.7674 6 10.603C5.99944 10.4384 5.9311 10.2814 5.81095 10.1689L1.42359 5.60123L5.81095 1.03359C5.9311 0.921072 5.99944 0.764111 6 0.599509C6.00055 0.435045 5.93332 0.277527 5.814 0.164329C5.69468 0.0509834 5.53397 -0.00805385 5.36965 0.000975545C5.20546 0.010004 5.05211 0.0864 4.94599 0.212111L0.166762 5.19047C0.0410509 5.32132 -0.0185361 5.50217 0.00507553 5.68205L0.00493662 5.6821Z" fill="black"/>
</svg>
