<svg width="12" height="12" viewBox="0 0 12 12" fill="none" xmlns="http://www.w3.org/2000/svg">
<path d="M5.99506 5.5203C5.97714 5.39598 5.92047 5.28068 5.83324 5.1904L1.05401 0.212038C0.947887 0.0863275 0.794536 0.00993105 0.630353 0.000902441C0.466028 -0.00812652 0.305316 0.0509064 0.185999 0.164257C0.066678 0.277464 -0.000551231 0.434984 3.50225e-06 0.599437C0.00055916 0.764039 0.0689007 0.921003 0.189053 1.03351L4.57641 5.60116L0.189054 10.1688C0.0689008 10.2813 0.000558351 10.4383 3.62154e-06 10.6029C-0.000551962 10.7673 0.0666781 10.9249 0.185999 11.0381C0.305319 11.1514 0.466032 11.2104 0.630353 11.2014C0.794539 11.1924 0.947891 11.116 1.05401 10.9903L5.83324 6.01192C5.95895 5.88107 6.01854 5.70022 5.99492 5.52034L5.99506 5.5203Z" fill="black"/>
<path d="M8.99506 5.5203C8.97714 5.39598 8.92047 5.28068 8.83324 5.1904L4.05401 0.212038C3.94789 0.0863275 3.79454 0.00993105 3.63035 0.000902441C3.46603 -0.00812652 3.30532 0.0509064 3.186 0.164257C3.06668 0.277464 2.99945 0.434984 3 0.599437C3.00056 0.764039 3.0689 0.921003 3.18905 1.03351L7.57641 5.60116L3.18905 10.1688C3.0689 10.2813 3.00056 10.4383 3 10.6029C2.99945 10.7673 3.06668 10.9249 3.186 11.0381C3.30532 11.1514 3.46603 11.2104 3.63035 11.2014C3.79454 11.1924 3.94789 11.116 4.05401 10.9903L8.83324 6.01192C8.95895 5.88107 9.01854 5.70022 8.99492 5.52034L8.99506 5.5203Z" fill="black"/>
<path d="M11.9951 5.5203C11.9771 5.39598 11.9205 5.28068 11.8332 5.1904L7.05401 0.212038C6.94789 0.0863275 6.79454 0.00993105 6.63035 0.000902441C6.46603 -0.00812652 6.30532 0.0509064 6.186 0.164257C6.06668 0.277464 5.99945 0.434984 6 0.599437C6.00056 0.764039 6.0689 0.921003 6.18905 1.03351L10.5764 5.60116L6.18905 10.1688C6.0689 10.2813 6.00056 10.4383 6 10.6029C5.99945 10.7673 6.06668 10.9249 6.186 11.0381C6.30532 11.1514 6.46603 11.2104 6.63035 11.2014C6.79454 11.1924 6.94789 11.116 7.05401 10.9903L11.8332 6.01192C11.9589 5.88107 12.0185 5.70022 11.9949 5.52034L11.9951 5.5203Z" fill="black"/>
</svg>
